<svg width="24" height="24" viewBox="0 0 24 24" fill="none" xmlns="http://www.w3.org/2000/svg">
  <path d="M2.5 12C2.5 7.52166 2.5 5.28249 3.89124 3.89124C5.28249 2.5 7.52166 2.5 12 2.5C16.4783 2.5 18.7175 2.5 20.1088 3.89124C21.5 5.28249 21.5 7.52166 21.5 12C21.5 16.4783 21.5 18.7175 20.1088 20.1088C18.7175 21.5 16.4783 21.5 12 21.5C7.52166 21.5 5.28249 21.5 3.89124 20.1088C2.5 18.7175 2.5 16.4783 2.5 12Z" stroke="currentColor" stroke-linecap="round" stroke-linejoin="round" stroke-width="1.5"/>
  <circle cx="16.5" cy="7.5" r="1.5" stroke="currentColor" stroke-linecap="round" stroke-linejoin="round" stroke-width="1.5"/>
  <path d="M16 22C15.3805 19.7749 13.9345 17.7821 11.8765 16.3342C9.65761 14.7671 6.87163 13.9466 2.5 13" stroke="currentColor" stroke-linecap="round" stroke-linejoin="round" stroke-width="1.5"/>
</svg>
